<svg id="Group_16240" data-name="Group 16240" xmlns="http://www.w3.org/2000/svg" width="24.003" height="24" viewBox="0 0 24.003 24">
  <g id="Group_13963" data-name="Group 13963" transform="translate(0 0)">
    <g id="Group_13960" data-name="Group 13960">
      <path id="Path_8738" data-name="Path 8738" d="M413.841,586.689a2.312,2.312,0,0,1-1.64-.678L399.789,573.6a2.325,2.325,0,0,1-.678-1.73l.257-6.693a2.331,2.331,0,0,1,2.229-2.23l6.7-.256a2.314,2.314,0,0,1,1.729.677l12.412,12.411a2.321,2.321,0,0,1,0,3.281l-6.952,6.951A2.312,2.312,0,0,1,413.841,586.689Zm-5.46-22.373h-.027l-6.7.257a.7.7,0,0,0-.665.665l-.257,6.694a.7.7,0,0,0,.2.516l12.412,12.411a.694.694,0,0,0,.98,0l6.951-6.951a.692.692,0,0,0,0-.979L408.87,564.519A.7.7,0,0,0,408.381,564.316Z" transform="translate(-399.109 -562.689)"/>
    </g>
    <g id="Group_13961" data-name="Group 13961" transform="translate(7.894 8.032)">
      <path id="Path_8739" data-name="Path 8739" d="M407.809,570.056l-.638.638.894.894-.448.448-.894-.894-.816.816-.546-.546,2.36-2.36,1.44,1.44-.458.458Z" transform="translate(-405.361 -569.051)"/>
      <path id="Path_8740" data-name="Path 8740" d="M409.968,571.3l.992.991a1.246,1.246,0,0,1,.284.423,1.191,1.191,0,0,1,.086.457,1.144,1.144,0,0,1-.1.446,1.261,1.261,0,0,1-.266.387,1.213,1.213,0,0,1-.576.331,1.11,1.11,0,0,1-.654-.037l-.273,1.218-.634-.634.236-1.072-.257-.257-.654.654-.546-.546Zm-.341,2.182a.5.5,0,0,0,.189.122.516.516,0,0,0,.209.03.575.575,0,0,0,.206-.054.66.66,0,0,0,.182-.128.64.64,0,0,0,.128-.182.564.564,0,0,0,.054-.2.509.509,0,0,0-.031-.21.5.5,0,0,0-.121-.189l-.374-.374-.816.816Z" transform="translate(-405.922 -569.612)"/>
      <path id="Path_8741" data-name="Path 8741" d="M412.79,575l-.536.536.894.894-.428.428-.894-.894-.519.519.894.894-.439.438-1.44-1.44,2.36-2.36,1.441,1.44-.439.439Z" transform="translate(-406.6 -570.29)"/>
      <path id="Path_8742" data-name="Path 8742" d="M415.06,577.266l-.536.536.894.894-.428.428-.894-.894-.519.519.894.894-.438.439-1.44-1.44,2.36-2.36,1.44,1.44-.438.438Z" transform="translate(-407.167 -570.857)"/>
    </g>
    <g id="Group_13962" data-name="Group 13962" transform="translate(4.469 4.4)">
      <circle id="Ellipse_14" data-name="Ellipse 14" cx="0.977" cy="0.977" r="0.977"/>
    </g>
  </g>
</svg>
