<svg xmlns="http://www.w3.org/2000/svg" width="38" height="38" viewBox="0 0 38 38">
  <g id="Group_16842" data-name="Group 16842" transform="translate(-658.001 -1271.994)">
    <g id="Group_16240" data-name="Group 16240" transform="translate(658.001 1271.994)">
      <g id="Group_13963" data-name="Group 13963" transform="translate(0 0)">
        <g id="Group_13960" data-name="Group 13960">
          <path id="Path_8738" data-name="Path 8738" d="M422.431,600.689a3.66,3.66,0,0,1-2.6-1.074l-19.649-19.65a3.682,3.682,0,0,1-1.073-2.739l.407-10.6a3.69,3.69,0,0,1,3.529-3.531l10.6-.405a3.663,3.663,0,0,1,2.738,1.072l19.649,19.65a3.676,3.676,0,0,1,0,5.2l-11.006,11.006A3.66,3.66,0,0,1,422.431,600.689Zm-8.643-35.424-.043,0-10.6.407a1.1,1.1,0,0,0-1.053,1.053l-.407,10.6a1.1,1.1,0,0,0,.32.817l19.649,19.65a1.1,1.1,0,0,0,1.552,0l11-11.006a1.1,1.1,0,0,0,0-1.55l-19.649-19.65A1.1,1.1,0,0,0,413.788,565.265Z" transform="translate(-399.109 -562.689)"/>
        </g>
        <g id="Group_13961" data-name="Group 13961" transform="translate(12.498 12.72)">
          <path id="Path_8739" data-name="Path 8739" d="M409.236,570.641l-1.009,1.009,1.414,1.414-.709.709-1.414-1.414-1.292,1.292-.865-.865,3.736-3.736,2.279,2.279-.726.726Z" transform="translate(-405.361 -569.051)"/>
          <path id="Path_8740" data-name="Path 8740" d="M411.344,571.3l1.57,1.569a1.973,1.973,0,0,1,.45.67,1.885,1.885,0,0,1,.137.723,1.814,1.814,0,0,1-.156.705,2,2,0,0,1-.422.613,1.921,1.921,0,0,1-.912.524,1.758,1.758,0,0,1-1.036-.059l-.432,1.927-1-1,.374-1.7-.406-.406-1.036,1.035-.865-.865Zm-.539,3.453a.8.8,0,0,0,.3.192.812.812,0,0,0,.33.047.906.906,0,0,0,.327-.085,1.045,1.045,0,0,0,.289-.2,1.009,1.009,0,0,0,.2-.289.889.889,0,0,0,.086-.324.822.822,0,0,0-.24-.631l-.593-.592-1.292,1.292Z" transform="translate(-404.94 -568.629)"/>
          <path id="Path_8741" data-name="Path 8741" d="M414.229,575.571l-.848.848,1.414,1.414-.678.678L412.7,577.1l-.822.822,1.414,1.414-.695.693-2.279-2.279,3.736-3.736,2.28,2.279-.695.695Z" transform="translate(-404.431 -568.12)"/>
          <path id="Path_8742" data-name="Path 8742" d="M416.5,577.84l-.849.849,1.414,1.414-.678.677-1.414-1.414-.822.822,1.414,1.414-.694.695-2.279-2.279,3.736-3.736,2.279,2.279-.694.694Z" transform="translate(-404.005 -567.695)"/>
        </g>
        <g id="Group_13962" data-name="Group 13962" transform="translate(7.075 6.967)">
          <circle id="Ellipse_14" data-name="Ellipse 14" cx="1.546" cy="1.546" r="1.546"/>
        </g>
      </g>
    </g>
  </g>
</svg>
