<svg id="Group_7183" data-name="Group 7183" xmlns="http://www.w3.org/2000/svg" width="16" height="16" viewBox="0 0 16 16">
  <circle id="Ellipse_171" data-name="Ellipse 171" cx="0.933" cy="0.933" r="0.933" transform="translate(11.333 2.867)"/>
  <path id="Path_4709" data-name="Path 4709" d="M1646.633,1766.4a3.94,3.94,0,0,0-3.933,3.934,3.984,3.984,0,0,0,3.933,3.933,3.933,3.933,0,1,0,0-7.867Zm0,6.467a2.533,2.533,0,1,1,2.533-2.533A2.532,2.532,0,0,1,1646.633,1772.867Z" transform="translate(-1638.567 -1762.333)"/>
  <path id="Path_4710" data-name="Path 4710" d="M1647.7,1776.3h-6.4a4.78,4.78,0,0,1-4.8-4.8v-6.4a4.78,4.78,0,0,1,4.8-4.8h6.4a4.78,4.78,0,0,1,4.8,4.8v6.4A4.823,4.823,0,0,1,1647.7,1776.3Zm-6.4-14.533a3.343,3.343,0,0,0-3.333,3.333v6.4a3.343,3.343,0,0,0,3.333,3.333h6.4a3.343,3.343,0,0,0,3.333-3.333v-6.4a3.343,3.343,0,0,0-3.333-3.333Z" transform="translate(-1636.5 -1760.3)"/>
</svg>
