<svg id="live_help_black_24dp-2" xmlns="http://www.w3.org/2000/svg" width="24" height="24" viewBox="0 0 24 24">
  <path id="Path_9455" data-name="Path 9455" d="M0,0H24V24H0Z" fill="none"/>
  <path id="Path_9456" data-name="Path 9456" d="M19,2H5A2,2,0,0,0,3,4V18a2,2,0,0,0,2,2H9l3,3,3-3h4a2.006,2.006,0,0,0,2-2V4A2.006,2.006,0,0,0,19,2Zm0,16H14.17l-.59.59L12,20.17l-1.59-1.59L9.83,18H5V4H19Zm-8-3h2v2H11Zm1-8a2.006,2.006,0,0,1,2,2c0,2-3,1.75-3,5h2c0-2.25,3-2.5,3-5A4,4,0,0,0,8,9h2A2.006,2.006,0,0,1,12,7Z" fill="#4c4c4c"/>
</svg>
