<svg xmlns="http://www.w3.org/2000/svg" width="16" height="16" viewBox="0 0 16 16">
  <g id="Group_16786" data-name="Group 16786" transform="translate(-106.866 -86.866)">
    <g id="Group_16785" data-name="Group 16785" transform="translate(106.866 86.866)">
      <path id="Path_9491" data-name="Path 9491" d="M122.866,94.66a7.867,7.867,0,0,1-11.651,6.824l-4.349,1.382,1.418-4.181a7.712,7.712,0,0,1-1.127-4.024,7.855,7.855,0,0,1,15.709,0Zm-7.854-6.553a6.585,6.585,0,0,0-6.6,6.553,6.485,6.485,0,0,0,1.258,3.842l-.825,2.433,2.537-.806a6.57,6.57,0,1,0,3.634-12.022Zm3.966,8.348c-.049-.08-.177-.128-.369-.223s-1.14-.558-1.316-.621-.306-.1-.433.1-.5.622-.61.749-.224.143-.417.048a5.267,5.267,0,0,1-1.549-.948,5.811,5.811,0,0,1-1.071-1.323c-.112-.191-.011-.294.084-.39s.193-.223.289-.334a1.309,1.309,0,0,0,.193-.32.347.347,0,0,0-.016-.334c-.048-.1-.433-1.036-.594-1.418s-.32-.367-.433-.367a2.776,2.776,0,0,0-.32.033,1.088,1.088,0,0,0-.562.239,2.135,2.135,0,0,0-.674,1.593,3.7,3.7,0,0,0,.786,1.976,7.868,7.868,0,0,0,3.289,2.885c1.958.765,1.958.51,2.311.477a1.943,1.943,0,0,0,1.3-.908,1.588,1.588,0,0,0,.113-.908Zm0,0" transform="translate(-106.866 -86.866)" fill="#303038"/>
    </g>
  </g>
</svg>
