<svg xmlns="http://www.w3.org/2000/svg" xmlns:xlink="http://www.w3.org/1999/xlink" width="74" height="74" viewBox="0 0 74 74">
  <defs>
    <filter id="Path_9461" x="0" y="0" width="74" height="74" filterUnits="userSpaceOnUse">
      <feOffset dx="2" dy="1" input="SourceAlpha"/>
      <feGaussianBlur stdDeviation="5" result="blur"/>
      <feFlood flood-color="#ffc73b" flood-opacity="0.502"/>
      <feComposite operator="in" in2="blur"/>
      <feComposite in="SourceGraphic"/>
    </filter>
  </defs>
  <g id="Group_16823" data-name="Group 16823" transform="translate(-279 -94)">
    <g transform="matrix(1, 0, 0, 1, 279, 94)" filter="url(#Path_9461)">
      <path id="Path_9461-2" data-name="Path 9461" d="M22,0A22,22,0,1,1,0,22,22,22,0,0,1,22,0Z" transform="translate(13 14)" fill="#fff"/>
    </g>
    <g id="share_black_24dp" transform="translate(299.804 116.804)">
      <path id="Path_9172" data-name="Path 9172" d="M0,0H26.392V26.392H0Z" fill="none"/>
      <path id="Path_9173" data-name="Path 9173" d="M19.5,17.483a3.2,3.2,0,0,0-2.155.847L9.5,13.766A3.6,3.6,0,0,0,9.6,13a3.6,3.6,0,0,0-.1-.77l7.753-4.52A3.292,3.292,0,1,0,16.2,5.3a3.6,3.6,0,0,0,.1.77l-7.753,4.52a3.3,3.3,0,1,0,0,4.817l7.83,4.575a3.1,3.1,0,0,0-.088.715A3.211,3.211,0,1,0,19.5,17.483ZM19.5,4.2a1.1,1.1,0,1,1-1.1,1.1A1.1,1.1,0,0,1,19.5,4.2ZM6.3,14.1A1.1,1.1,0,1,1,7.4,13,1.1,1.1,0,0,1,6.3,14.1Zm13.2,7.72a1.1,1.1,0,1,1,1.1-1.1A1.1,1.1,0,0,1,19.5,21.816Z" transform="translate(0.299 0.199)"/>
    </g>
  </g>
</svg>
