<svg id="receipt_long_black_24dp" xmlns="http://www.w3.org/2000/svg" width="24" height="24" viewBox="0 0 24 24">
  <path id="Path_9481" data-name="Path 9481" d="M0,0H24V24H0Z" fill="none"/>
  <g id="Group_16498" data-name="Group 16498">
    <path id="Path_9482" data-name="Path 9482" d="M19.5,3.5,18,2,16.5,3.5,15,2,13.5,3.5,12,2,10.5,3.5,9,2,7.5,3.5,6,2V16H3v3a3,3,0,0,0,3,3H18a3,3,0,0,0,3-3V2ZM15,20H6a1,1,0,0,1-1-1V18H15Zm4-1a1,1,0,0,1-2,0V16H8V5H19Z" fill="#4c4c4c"/>
    <rect id="Rectangle_4182" data-name="Rectangle 4182" width="6" height="2" transform="translate(9 7)" fill="#4c4c4c"/>
    <rect id="Rectangle_4183" data-name="Rectangle 4183" width="2" height="2" transform="translate(16 7)" fill="#4c4c4c"/>
    <rect id="Rectangle_4184" data-name="Rectangle 4184" width="6" height="2" transform="translate(9 10)" fill="#4c4c4c"/>
    <rect id="Rectangle_4185" data-name="Rectangle 4185" width="2" height="2" transform="translate(16 10)" fill="#4c4c4c"/>
  </g>
</svg>
