<svg id="settings_black_24dp" xmlns="http://www.w3.org/2000/svg" width="32" height="32" viewBox="0 0 32 32">
  <path id="Path_9456" data-name="Path 9456" d="M0,0H32V32H0Z" fill="none"/>
  <path id="Path_9457" data-name="Path 9457" d="M26.2,17.332A9.941,9.941,0,0,0,26.284,16a8.118,8.118,0,0,0-.1-1.332l2.9-2.238a.691.691,0,0,0,.171-.864l-2.742-4.7a.7.7,0,0,0-.843-.312l-3.414,1.36a10.111,10.111,0,0,0-2.314-1.332l-.514-3.6a.689.689,0,0,0-.686-.581H13.258a.675.675,0,0,0-.671.581l-.514,3.6A10.334,10.334,0,0,0,9.758,7.911L6.344,6.551a.684.684,0,0,0-.843.312l-2.728,4.7a.641.641,0,0,0,.171.864l2.9,2.238a7.818,7.818,0,0,0-.029,2.663l-2.9,2.238a.691.691,0,0,0-.171.864l2.742,4.7a.7.7,0,0,0,.843.312l3.414-1.36a10.111,10.111,0,0,0,2.314,1.332l.514,3.6a.7.7,0,0,0,.686.581h5.485a.664.664,0,0,0,.671-.581l.514-3.6a9.816,9.816,0,0,0,2.314-1.332l3.414,1.36a.684.684,0,0,0,.843-.312l2.742-4.7a.652.652,0,0,0-.171-.864ZM16,21.1A5.1,5.1,0,1,1,21.142,16,5.136,5.136,0,0,1,16,21.1Z" transform="translate(0)" fill="#4c4c4c"/>
</svg>
