<svg xmlns="http://www.w3.org/2000/svg" width="40.277" height="40.25" viewBox="0 0 40.277 40.25">
  <g id="Group_16861" data-name="Group 16861" transform="translate(-837.862 -968.875)">
    <g id="Group_16242" data-name="Group 16242" transform="translate(839 970)">
      <path id="Path_9159" data-name="Path 9159" d="M-239.737,370.215l2.222,2.417a2.507,2.507,0,0,0,2.365.735l3.283-.7a2.427,2.427,0,0,1,2.962,2.061l.314,3.205a2.347,2.347,0,0,0,1.462,1.926l3.088,1.276a2.292,2.292,0,0,1,1.131,3.333l-1.714,2.77a2.249,2.249,0,0,0,0,2.38l1.714,2.77a2.293,2.293,0,0,1-1.131,3.334l-3.088,1.276a2.345,2.345,0,0,0-1.462,1.925l-.314,3.206a2.427,2.427,0,0,1-2.962,2.06l-3.283-.7a2.505,2.505,0,0,0-2.365.736l-2.222,2.416a2.514,2.514,0,0,1-3.663,0l-2.222-2.416a2.506,2.506,0,0,0-2.365-.736l-3.282.7a2.427,2.427,0,0,1-2.962-2.06l-.314-3.206a2.346,2.346,0,0,0-1.461-1.925l-3.088-1.276a2.293,2.293,0,0,1-1.131-3.334l1.714-2.77a2.249,2.249,0,0,0,0-2.38l-1.714-2.77a2.292,2.292,0,0,1,1.131-3.333l3.088-1.276a2.347,2.347,0,0,0,1.461-1.926l.314-3.205a2.427,2.427,0,0,1,2.962-2.061l3.282.7a2.507,2.507,0,0,0,2.365-.735l2.222-2.417A2.513,2.513,0,0,1-239.737,370.215Z" transform="translate(260.568 -369.423)" fill="none" stroke="#000" stroke-width="2.25"/>
    </g>
    <text id="_" data-name="%" transform="translate(850 995)" font-size="18" font-family="DMSans-Bold, DM Sans" font-weight="700"><tspan x="0" y="0">%</tspan></text>
  </g>
</svg>
