<svg id="password_black_24dp" xmlns="http://www.w3.org/2000/svg" width="24" height="24" viewBox="0 0 24 24">
  <g id="Group_16453" data-name="Group 16453">
    <path id="Path_9475" data-name="Path 9475" d="M0,0H24V24H0Z" fill="none"/>
  </g>
  <g id="Group_16455" data-name="Group 16455" transform="translate(1 7)">
    <g id="Group_16454" data-name="Group 16454">
      <path id="Path_9476" data-name="Path 9476" d="M2,17H22v2H2Zm1.15-4.05L4,11.47l.85,1.48,1.3-.75L5.3,10.72H7V9.22H5.3l.85-1.47L4.85,7,4,8.47,3.15,7l-1.3.75L2.7,9.22H1v1.5H2.7L1.85,12.2Zm6.7-.75,1.3.75L12,11.47l.85,1.48,1.3-.75-.85-1.48H15V9.22H13.3l.85-1.47L12.85,7,12,8.47,11.15,7l-1.3.75.85,1.47H9v1.5h1.7ZM23,9.22H21.3l.85-1.47L20.85,7,20,8.47,19.15,7l-1.3.75.85,1.47H17v1.5h1.7l-.85,1.48,1.3.75L20,11.47l.85,1.48,1.3-.75-.85-1.48H23Z" transform="translate(-1 -7)" fill="#4c4c4c"/>
    </g>
  </g>
</svg>
