<svg id="local_activity_black_24dp" xmlns="http://www.w3.org/2000/svg" width="24" height="24" viewBox="0 0 24 24">
  <path id="Path_9461" data-name="Path 9461" d="M0,0H24V24H0Z" fill="none"/>
  <path id="Path_9462" data-name="Path 9462" d="M20,12a2.006,2.006,0,0,1,2-2V6a2.006,2.006,0,0,0-2-2H4A2,2,0,0,0,2.01,6v4A2,2,0,0,1,2,14v4a2.006,2.006,0,0,0,2,2H20a2.006,2.006,0,0,0,2-2V14A2.006,2.006,0,0,1,20,12Zm-4.42,4.8L12,14.5,8.42,16.8,9.5,12.68,6.21,9.99l4.24-.25L12,5.8l1.54,3.95,4.24.25-3.29,2.69,1.09,4.11Z" fill="#4c4c4c"/>
</svg>
